<svg width="64" height="64" viewBox="0 0 64 64" fill="none" xmlns="http://www.w3.org/2000/svg">
<circle cx="32" cy="32" r="32" fill="#D3B47F"/>
<path d="M41.97 38.33C41.97 38.69 41.89 39.06 41.72 39.42C41.55 39.78 41.33 40.12 41.04 40.44C40.55 40.98 40.01 41.37 39.4 41.62C38.8 41.87 38.15 42 37.45 42C36.43 42 35.34 41.76 34.19 41.27C33.04 40.78 31.89 40.12 30.75 39.29C29.6 38.45 28.51 37.52 27.47 36.49C26.44 35.45 25.51 34.36 24.68 33.22C23.86 32.08 23.2 30.94 22.72 29.81C22.24 28.67 22 27.58 22 26.54C22 25.86 22.12 25.21 22.36 24.61C22.6 24 22.98 23.44 23.51 22.94C24.15 22.31 24.85 22 25.59 22C25.87 22 26.15 22.06 26.4 22.18C26.66 22.3 26.89 22.48 27.07 22.74L29.39 26.01C29.57 26.26 29.7 26.49 29.79 26.71C29.88 26.92 29.93 27.13 29.93 27.32C29.93 27.56 29.86 27.8 29.72 28.03C29.59 28.26 29.4 28.5 29.16 28.74L28.4 29.53C28.29 29.64 28.24 29.77 28.24 29.93C28.24 30.01 28.25 30.08 28.27 30.16C28.3 30.24 28.33 30.3 28.35 30.36C28.53 30.69 28.84 31.12 29.28 31.64C29.73 32.16 30.21 32.69 30.73 33.22C31.27 33.75 31.79 34.24 32.32 34.69C32.84 35.13 33.27 35.43 33.61 35.61C33.66 35.63 33.72 35.66 33.79 35.69C33.87 35.72 33.95 35.73 34.04 35.73C34.21 35.73 34.34 35.67 34.45 35.56L35.21 34.81C35.46 34.56 35.7 34.37 35.93 34.25C36.16 34.11 36.39 34.04 36.64 34.04C36.83 34.04 37.03 34.08 37.25 34.17C37.47 34.26 37.7 34.39 37.95 34.56L41.26 36.91C41.52 37.09 41.7 37.3 41.81 37.55C41.91 37.8 41.97 38.05 41.97 38.33Z" stroke="white" stroke-width="1.5" stroke-miterlimit="10"/>
<path d="M38.5 29C38.5 28.4 38.03 27.48 37.33 26.73C36.69 26.04 35.84 25.5 35 25.5" stroke="white" stroke-width="1.5" stroke-linecap="round" stroke-linejoin="round"/>
<path d="M42 29C42 25.13 38.87 22 35 22" stroke="white" stroke-width="1.5" stroke-linecap="round" stroke-linejoin="round"/>
</svg>
