<svg width="183" height="56" viewBox="0 0 183 56" fill="none" xmlns="http://www.w3.org/2000/svg">
<path fill-rule="evenodd" clip-rule="evenodd" d="M161.721 1.39355L107.711 55.4037H128.912L169.459 14.8574L183 28.3986V1.39355H161.721Z" fill="#FF5000"/>
<path fill-rule="evenodd" clip-rule="evenodd" d="M155.995 1.39355L142.454 14.8574L128.912 1.39355H155.995Z" fill="#002E6D"/>
<path fill-rule="evenodd" clip-rule="evenodd" d="M134.716 55.4036L169.459 20.6606L183 34.2019V55.4036L169.459 41.9397L155.995 55.4036H134.716Z" fill="#002E6D"/>
<path d="M104.383 36.2912C106.241 36.2912 107.943 36.059 109.49 35.5174C111.038 35.0531 112.431 34.2793 113.514 33.3508C114.675 32.4222 115.526 31.3389 116.145 30.0235C116.764 28.7081 117.074 27.3152 117.074 25.6903C117.074 24.5296 116.841 23.4463 116.455 22.4404C116.068 21.4345 115.526 20.5833 114.83 19.8869C114.133 19.1905 113.282 18.5715 112.431 18.1072C113.205 17.643 113.978 17.0239 114.597 16.2501C115.216 15.5537 115.681 14.7026 116.068 13.774C116.455 12.8455 116.609 11.917 116.609 10.8337C116.609 9.36346 116.3 7.97064 115.681 6.73258C115.062 5.49453 114.211 4.48861 113.127 3.63744C112.044 2.78628 110.729 2.08987 109.258 1.6256C107.788 1.16133 106.163 0.929199 104.306 0.929199C102.681 0.929199 101.134 1.16133 99.6634 1.6256C98.1932 2.08987 96.8778 2.78629 95.7945 3.71483C94.6338 4.64337 93.7053 5.80405 92.8541 7.19686C92.0803 8.58967 91.5386 10.2146 91.2291 12.0717H99.6634C99.8181 11.4527 100.128 10.7563 100.515 10.2146C100.901 9.59558 101.366 9.13132 101.985 8.82181C102.604 8.43492 103.378 8.28015 104.306 8.28015C105.08 8.28015 105.776 8.43491 106.318 8.66704C106.937 8.89918 107.324 9.28607 107.633 9.75034C107.943 10.2146 108.098 10.7563 108.098 11.3753C108.098 12.3812 107.711 13.2324 107.092 13.774C106.395 14.3931 105.467 14.6252 104.306 14.6252H99.7407V21.5119H104.306C105.312 21.5119 106.086 21.6666 106.705 21.9761C107.324 22.2857 107.788 22.6725 108.098 23.2916C108.407 23.8332 108.562 24.4523 108.562 25.1487C108.562 25.8451 108.407 26.4641 108.098 26.9284C107.788 27.47 107.324 27.8569 106.627 28.1664C106.008 28.4759 105.235 28.6307 104.229 28.6307C103.3 28.6307 102.526 28.4759 101.907 28.089C101.288 27.7795 100.824 27.3152 100.437 26.7736C100.05 26.2319 99.8182 25.6129 99.586 24.9165H91.1518C91.4613 26.7736 92.0029 28.3986 92.7767 29.7914C93.5505 31.1842 94.5564 32.3449 95.7171 33.2734C96.8778 34.2019 98.1932 34.8983 99.586 35.3626C101.211 36.059 102.759 36.2912 104.383 36.2912ZM76.8367 23.6785H70.8012L73.8964 14.4704L76.8367 23.6785ZM89.6042 35.9816L76.9915 1.39347H70.4143L57.8016 35.9816H66.7002L68.4025 30.7973H79.0807L80.7057 35.9816H89.6042ZM29.9454 25.1487C30.2549 27.0057 30.7966 28.6307 31.5704 30.0235C32.3441 31.4163 33.3501 32.577 34.5107 33.5055C35.6714 34.4341 36.9868 35.1305 38.3797 35.5948C39.8498 36.059 41.3974 36.2912 43.0224 36.2912C45.0342 36.2912 46.8139 35.9816 48.4389 35.2852C49.9864 34.6662 51.4566 33.6603 52.6947 32.4222C53.6232 31.4937 54.3196 30.4878 54.7839 29.4818C55.2482 28.3985 55.635 27.3153 55.7898 26.1546C56.0219 24.9939 56.0993 23.7558 56.0993 22.5178C56.0993 21.2797 56.1767 19.9643 56.0993 18.6489C56.0993 17.3334 56.0993 16.0954 56.0993 14.7799C56.0993 13.5419 55.9446 12.3038 55.7898 11.1432C55.5577 9.98249 55.2482 8.89917 54.7839 7.81588C54.3196 6.73258 53.6232 5.80405 52.6947 4.8755C51.4566 3.56007 49.9864 2.63154 48.4389 1.93513C46.8913 1.31611 45.0342 0.929199 43.0224 0.929199C41.3974 0.929199 39.8498 1.16133 38.3797 1.6256C36.9095 2.08987 35.6714 2.78629 34.5107 3.71483C33.3501 4.64337 32.4215 5.80405 31.5704 7.19686C30.7966 8.58967 30.2549 10.2146 29.9454 12.0717H38.457C38.6118 11.4527 38.9213 10.8336 39.3082 10.2146C39.6951 9.67296 40.1594 9.20871 40.7784 8.89919C41.3974 8.5123 42.1712 8.35753 43.0997 8.35753C43.8735 8.35753 44.5699 8.5123 45.189 8.82181C45.808 9.13132 46.2723 9.51821 46.5818 9.9051C46.8139 10.1372 46.9687 10.4468 47.1234 10.8337C47.2782 11.2205 47.4329 11.6848 47.5103 12.3038C47.6651 12.9229 47.7425 13.774 47.8198 14.7799H38.6118V22.2083H47.8198C47.7425 23.0594 47.7425 23.6785 47.5877 24.2201C47.5103 24.7618 47.4329 25.226 47.2782 25.6129C47.2008 25.9998 47.046 26.3093 46.8913 26.5415C46.7365 26.7736 46.5818 27.0057 46.427 27.2379C46.1175 27.7021 45.5759 28.0116 45.0342 28.3212C44.4152 28.6307 43.7188 28.7854 42.945 28.7854C42.0165 28.7854 41.2427 28.6307 40.6236 28.2438C40.0046 27.9343 39.5403 27.47 39.1534 26.9284C38.7665 26.3867 38.5344 25.7677 38.3023 25.0713H29.9454V25.1487ZM8.58896 35.9816V17.8751L18.8029 35.9816H28.8621L17.4875 17.4882L27.7014 1.39347H17.9518L8.58896 17.7977V1.39347H0.0773315V35.9816H8.58896Z" fill="#002E6D"/>
<path d="M4.79745 52.6178C4.79745 53.5463 4.64271 54.2427 4.25581 54.7844C3.86892 55.2486 3.24988 55.5581 2.39871 55.5581C1.54755 55.5581 0.928527 55.326 0.541635 54.8617C0.154743 54.3975 0 53.7784 0 53.0047V47.8977C0 47.5108 -1.88924e-05 47.2013 0.0773595 46.8144C0.154738 46.5049 0.232116 46.118 0.464252 45.8858C0.619009 45.5763 0.851163 45.4216 1.16068 45.2668C1.47019 45.1121 1.85706 45.0347 2.39871 45.0347C2.94036 45.0347 3.32726 45.1121 3.63677 45.2668C3.94629 45.4216 4.17842 45.5763 4.33317 45.8858C4.48793 46.118 4.64271 46.4275 4.64271 46.8144C4.72008 47.1239 4.72007 47.5108 4.72007 47.9751V52.6178H4.79745ZM3.63677 47.6655C3.63677 47.5108 3.63677 47.2787 3.63677 47.1239C3.63677 46.9691 3.55941 46.737 3.48203 46.5822C3.40465 46.4275 3.24989 46.2727 3.09514 46.1953C2.94038 46.118 2.70823 46.0406 2.4761 46.0406C2.16658 46.0406 1.93445 46.118 1.77969 46.2727C1.62494 46.4275 1.47018 46.5823 1.3928 46.8144C1.31542 47.0465 1.23804 47.2013 1.23804 47.4334C1.23804 47.6655 1.23804 47.8203 1.23804 47.9751V53.0047C1.23804 53.1594 1.23804 53.3142 1.31542 53.4689C1.31542 53.6237 1.39281 53.7784 1.47019 53.9332C1.54756 54.0879 1.70232 54.1653 1.85708 54.3201C2.01183 54.3975 2.24396 54.4748 2.4761 54.4748C2.70823 54.4748 2.94038 54.3975 3.09514 54.3201C3.24989 54.2427 3.40465 54.0879 3.48203 53.9332C3.55941 53.7784 3.63677 53.6237 3.63677 53.3916C3.63677 53.1594 3.71416 53.0046 3.71416 52.7725V47.6655H3.63677Z" fill="#002E6D"/>
<path d="M10.3687 44.9575C11.1425 44.9575 11.7615 45.1897 12.1484 45.5766C12.5353 46.0408 12.6901 46.5825 12.6901 47.2789L11.5294 47.511C11.5294 47.0468 11.452 46.6599 11.2972 46.4277C11.1425 46.1956 10.833 46.0408 10.4461 46.0408C10.214 46.0408 9.98181 46.1182 9.82705 46.1956C9.67229 46.273 9.59491 46.4277 9.44016 46.5825C9.36278 46.7372 9.28541 46.892 9.28541 47.1241C9.28541 47.3563 9.20803 47.511 9.20803 47.6658V52.9275C9.20803 53.0823 9.20804 53.237 9.28541 53.3918C9.28541 53.5465 9.36278 53.7013 9.44016 53.856C9.51753 54.0108 9.67229 54.0882 9.74967 54.2429C9.90442 54.3203 10.0592 54.3977 10.2913 54.3977C10.6782 54.3977 10.9877 54.2429 11.1425 54.0108C11.2972 53.7787 11.452 53.3918 11.452 52.8501L12.6901 53.0823C12.6901 53.856 12.4579 54.3977 12.071 54.862C11.6841 55.2489 11.1425 55.481 10.3687 55.481C9.59492 55.481 8.97588 55.2489 8.58899 54.862C8.2021 54.3977 7.96997 53.7787 7.96997 53.0049V47.8979C7.96997 47.511 7.96998 47.2015 8.04735 46.8146C8.12473 46.4277 8.20211 46.1182 8.43425 45.8861C8.589 45.5766 8.82113 45.4218 9.13065 45.1897C9.44016 45.0349 9.90444 44.9575 10.3687 44.9575Z" fill="#002E6D"/>
<path d="M19.1898 55.4034V50.6059H16.7911V55.4034H15.6304V45.0347H16.7911V49.6H19.1898V45.0347H20.3505V55.4034H19.1898Z" fill="#002E6D"/>
<path d="M28.4753 52.6178C28.4753 53.5463 28.3205 54.2427 27.9336 54.7844C27.5467 55.2486 26.9277 55.5581 26.0765 55.5581C25.2254 55.5581 24.6063 55.326 24.2195 54.8617C23.8326 54.3975 23.6778 53.7784 23.6778 53.0047V47.8977C23.6778 47.5108 23.6778 47.2013 23.7552 46.8144C23.8326 46.5049 23.9099 46.118 24.1421 45.8858C24.2968 45.5763 24.529 45.4216 24.8385 45.2668C25.148 45.1121 25.5349 45.0347 26.0765 45.0347C26.6182 45.0347 27.0051 45.1121 27.3146 45.2668C27.6241 45.4216 27.8562 45.5763 28.011 45.8858C28.1657 46.118 28.3205 46.4275 28.3205 46.8144C28.3979 47.1239 28.3979 47.5108 28.3979 47.9751V52.6178H28.4753ZM27.2372 47.6655C27.2372 47.5108 27.2372 47.2787 27.2372 47.1239C27.2372 46.9691 27.1598 46.737 27.0825 46.5822C27.0051 46.4275 26.8503 46.2727 26.6956 46.1953C26.5408 46.118 26.3087 46.0406 26.0765 46.0406C25.767 46.0406 25.5349 46.118 25.3801 46.2727C25.2254 46.4275 25.0706 46.5823 24.9932 46.8144C24.9159 47.0465 24.8385 47.2013 24.8385 47.4334C24.8385 47.6655 24.8385 47.8203 24.8385 47.9751V53.0047C24.8385 53.1594 24.8385 53.3142 24.9159 53.4689C24.9159 53.6237 24.9932 53.7784 25.0706 53.9332C25.148 54.0879 25.3028 54.1653 25.4575 54.3201C25.6123 54.3975 25.8444 54.4748 26.0765 54.4748C26.3087 54.4748 26.5408 54.3975 26.6956 54.3201C26.8503 54.2427 27.0051 54.0879 27.0825 53.9332C27.1598 53.7784 27.2372 53.6237 27.2372 53.3916C27.2372 53.1594 27.3146 53.0046 27.3146 52.7725V47.6655H27.2372Z" fill="#002E6D"/>
<path d="M35.2845 49.9869C35.7488 50.1416 36.0583 50.3738 36.2131 50.8381C36.3678 51.2249 36.4452 51.7666 36.4452 52.3856C36.4452 53.4689 36.2131 54.2427 35.7488 54.707C35.2845 55.1712 34.5882 55.4034 33.6596 55.4034H31.6478V45.0347H33.8144C34.7429 45.0347 35.3619 45.2668 35.6714 45.7311C36.0583 46.1953 36.2131 46.8918 36.2131 47.7429C36.2131 48.2846 36.1357 48.7488 35.981 49.0584C35.981 49.4452 35.6714 49.6774 35.2845 49.9869ZM35.2072 47.8203C35.2072 47.2786 35.0524 46.8918 34.8203 46.5822C34.5882 46.2727 34.2013 46.1953 33.6596 46.1953H32.8858V49.5226H33.6596C34.2013 49.5226 34.5882 49.3679 34.8203 49.0584C35.1298 48.7488 35.2072 48.3619 35.2072 47.8203ZM35.2845 52.2309C35.2845 51.6892 35.2072 51.2249 34.975 50.9154C34.7429 50.6059 34.356 50.4512 33.737 50.4512H32.8858V54.3201H33.8144C34.1239 54.3201 34.4334 54.2427 34.5881 54.1653C34.8203 54.088 34.8977 53.9332 35.0524 53.7011C35.1298 53.4689 35.2072 53.3142 35.2845 53.0047C35.2845 52.8499 35.2845 52.5404 35.2845 52.2309Z" fill="#002E6D"/>
<path d="M43.4867 55.4034L43.0224 53.082H40.701L40.2368 55.4034H39.0761L41.3201 45.0347H42.4034L44.6473 55.4034H43.4867ZM41.7844 47.2013L41.3201 49.6L40.8558 51.9987H42.7903L42.2486 49.5226L41.7844 47.2013Z" fill="#002E6D"/>
<path d="M50.915 55.4034V50.6059H48.5163V55.4034H47.3556V45.0347H48.5163V49.6H50.915V45.0347H52.0757V55.4034H50.915Z" fill="#002E6D"/>
<path d="M63.7599 49.9869C64.2241 50.1416 64.5336 50.3738 64.6884 50.8381C64.8431 51.2249 64.9205 51.7666 64.9205 52.3856C64.9205 53.4689 64.6884 54.2427 64.2241 54.707C63.7599 55.1712 63.0634 55.4034 62.1349 55.4034H60.2004V45.0347H62.367C63.2956 45.0347 63.9146 45.2668 64.2241 45.7311C64.611 46.1953 64.7658 46.8918 64.7658 47.7429C64.7658 48.2846 64.6884 48.7488 64.5336 49.0584C64.4563 49.4452 64.1467 49.6774 63.7599 49.9869ZM63.6825 47.8203C63.6825 47.2786 63.5277 46.8918 63.2956 46.5822C63.0634 46.2727 62.6765 46.1953 62.1349 46.1953H61.3611V49.5226H62.1349C62.6765 49.5226 63.0634 49.3679 63.2956 49.0584C63.6051 48.7488 63.6825 48.3619 63.6825 47.8203ZM63.7599 52.2309C63.7599 51.6892 63.6825 51.2249 63.4503 50.9154C63.2182 50.6059 62.8313 50.4512 62.2123 50.4512H61.3611V54.3201H62.2897C62.5992 54.3201 62.9087 54.2427 63.0635 54.1653C63.2956 54.088 63.3729 53.9332 63.5277 53.7011C63.6825 53.4689 63.6825 53.3142 63.7599 53.0047C63.7599 52.8499 63.7599 52.5404 63.7599 52.2309Z" fill="#002E6D"/>
<path d="M75.0571 55.4036V46.273L73.5869 47.511V46.273L75.0571 45.1123H76.2951V55.481H75.0571V55.4036Z" fill="#002E6D"/>
<path d="M82.7175 50.8383C82.4854 50.993 82.2533 51.0704 81.9437 51.0704C81.6342 51.0704 81.3247 50.993 81.17 50.9157C80.9378 50.8383 80.7831 50.6835 80.6283 50.5288C80.4736 50.374 80.3962 50.1419 80.3188 49.9098C80.2414 49.6776 80.2415 49.4455 80.2415 49.136V46.9694C80.2415 46.6598 80.3188 46.3503 80.3962 46.1182C80.4736 45.8861 80.6283 45.6539 80.8605 45.4992C81.0926 45.3444 81.2473 45.1897 81.5569 45.1123C81.789 45.0349 82.0985 44.9575 82.3306 44.9575C83.027 44.9575 83.4913 45.1123 83.8782 45.4992C84.2651 45.8087 84.4199 46.3503 84.4199 46.9694V48.6717C84.4199 49.136 84.4199 49.5229 84.3425 49.755C84.2651 50.0645 84.1878 50.2966 84.1104 50.5288L82.1759 55.4036H81.0152L82.7175 50.8383ZM81.4021 49.2133C81.4021 49.4455 81.4795 49.6776 81.6343 49.8324C81.789 49.9871 82.0211 50.0645 82.2533 50.0645C82.408 50.0645 82.5628 50.0645 82.7175 49.9871C82.8723 49.9097 82.9497 49.8324 83.0271 49.755C83.1044 49.6776 83.1818 49.5229 83.1818 49.3681C83.1818 49.2133 83.2592 49.136 83.2592 48.9812V46.892C83.2592 46.6598 83.1818 46.4277 83.0271 46.273C82.8723 46.1182 82.6401 46.0408 82.3306 46.0408C82.0985 46.0408 81.8664 46.1182 81.6343 46.273C81.4795 46.4277 81.4021 46.5825 81.4021 46.892V49.2133Z" fill="#002E6D"/>
<path d="M91.5387 53.7784V55.4034H90.378V53.7784H87.2828V52.6951L89.4494 45.0347H90.6101L88.4435 52.6951H90.378V49.8321H91.5387V52.6951H92.2351V53.7784H91.5387Z" fill="#002E6D"/>
<path d="M97.1873 55.5581C96.8004 55.5581 96.4135 55.4808 96.1814 55.4034C95.9492 55.2486 95.7171 55.0939 95.5623 54.8617C95.4076 54.6296 95.2528 54.3975 95.1755 54.088C95.0981 53.7784 95.0207 53.4689 95.0207 53.1594L96.1814 53.0047C96.1814 53.2368 96.1814 53.3915 96.1814 53.6237C96.1814 53.7784 96.2588 53.9332 96.3361 54.088C96.4135 54.2427 96.4909 54.3201 96.6456 54.3975C96.8004 54.4748 96.9551 54.4748 97.1873 54.4748C97.4194 54.4748 97.6515 54.3975 97.8063 54.2427C97.9611 54.0879 98.0385 53.7784 98.1158 53.3916V50.6833C98.1158 50.0643 97.8063 49.8321 97.2647 49.8321C97.0325 49.8321 96.8778 49.9095 96.6456 49.9869C96.4909 50.0643 96.3361 50.219 96.2587 50.3738H95.2528V45.0347H99.2765V46.118H96.2587V49.2131H96.3361C96.4909 49.0583 96.6457 48.981 96.8778 48.9036C97.1099 48.8262 97.342 48.8262 97.5742 48.8262C98.1932 48.8262 98.5801 48.981 98.8123 49.2905C99.0444 49.6 99.1991 49.9869 99.1991 50.5285V53.3142C99.1991 53.7011 99.1218 54.0879 99.0444 54.3201C98.967 54.6296 98.8122 54.8617 98.5801 55.0165C98.3479 55.1712 98.1932 55.326 97.8837 55.4034C97.7289 55.4808 97.4968 55.5581 97.1873 55.5581Z" fill="#002E6D"/>
</svg>
