<svg width="267" height="48" viewBox="0 0 267 48" fill="none" xmlns="http://www.w3.org/2000/svg">
<circle cx="243" cy="24" r="23.5" stroke="black"/>
<path d="M244.297 18.832L240.521 26.112V30H238.281V26.112L234.489 18.832H237.017L239.417 23.936L241.801 18.832H244.297ZM248.196 22.976V27.264C248.196 27.5627 248.266 27.7813 248.404 27.92C248.554 28.048 248.799 28.112 249.14 28.112H250.18V30H248.772C246.884 30 245.94 29.0827 245.94 27.248V22.976H244.884V21.136H245.94V18.944H248.196V21.136H250.18V22.976H248.196Z" fill="black"/>
<circle cx="170" cy="24" r="23.5" stroke="black"/>
<path d="M166.837 18.832V20.64H163.861V30H161.621V20.64H158.645V18.832H166.837ZM180.759 21.136L178.167 30H175.751L174.135 23.808L172.519 30H170.087L167.479 21.136H169.751L171.319 27.888L173.015 21.136H175.383L177.047 27.872L178.615 21.136H180.759Z" fill="black"/>
<circle cx="97" cy="24" r="23.5" stroke="black"/>
<path d="M91.6956 18.832V30H89.4556V18.832H91.6956ZM97.3807 20.992C98.042 20.992 98.6234 21.1253 99.1247 21.392C99.626 21.648 100.021 21.984 100.309 22.4V21.136H102.565V30.064C102.565 30.8853 102.399 31.616 102.069 32.256C101.738 32.9067 101.242 33.4187 100.581 33.792C99.9194 34.176 99.1194 34.368 98.1807 34.368C96.922 34.368 95.8874 34.0747 95.0767 33.488C94.2767 32.9013 93.8234 32.1013 93.7167 31.088H95.9407C96.058 31.4933 96.3087 31.8133 96.6927 32.048C97.0874 32.2933 97.562 32.416 98.1167 32.416C98.7674 32.416 99.2954 32.2187 99.7007 31.824C100.106 31.44 100.309 30.8533 100.309 30.064V28.688C100.021 29.104 99.6207 29.4507 99.1087 29.728C98.6074 30.0053 98.0314 30.144 97.3807 30.144C96.634 30.144 95.9514 29.952 95.3327 29.568C94.714 29.184 94.2234 28.6453 93.8607 27.952C93.5087 27.248 93.3327 26.4427 93.3327 25.536C93.3327 24.64 93.5087 23.8453 93.8607 23.152C94.2234 22.4587 94.7087 21.9253 95.3167 21.552C95.9354 21.1787 96.6234 20.992 97.3807 20.992ZM100.309 25.568C100.309 25.024 100.202 24.56 99.9887 24.176C99.7754 23.7813 99.4874 23.4827 99.1247 23.28C98.762 23.0667 98.3727 22.96 97.9567 22.96C97.5407 22.96 97.1567 23.0613 96.8047 23.264C96.4527 23.4667 96.1647 23.7653 95.9407 24.16C95.7274 24.544 95.6207 25.0027 95.6207 25.536C95.6207 26.0693 95.7274 26.5387 95.9407 26.944C96.1647 27.3387 96.4527 27.6427 96.8047 27.856C97.1674 28.0693 97.5514 28.176 97.9567 28.176C98.3727 28.176 98.762 28.0747 99.1247 27.872C99.4874 27.6587 99.7754 27.36 99.9887 26.976C100.202 26.5813 100.309 26.112 100.309 25.568Z" fill="black"/>
<circle cx="24" cy="24" r="23.5" stroke="black"/>
<path d="M21.3359 18.832V20.64H16.6799V23.504H20.2479V25.28H16.6799V30H14.4399V18.832H21.3359ZM25.1643 22.432C25.4523 22.0053 25.847 21.6587 26.3483 21.392C26.8603 21.1253 27.4416 20.992 28.0923 20.992C28.8496 20.992 29.5323 21.1787 30.1403 21.552C30.759 21.9253 31.2443 22.4587 31.5963 23.152C31.959 23.8347 32.1403 24.6293 32.1403 25.536C32.1403 26.4427 31.959 27.248 31.5963 27.952C31.2443 28.6453 30.759 29.184 30.1403 29.568C29.5323 29.952 28.8496 30.144 28.0923 30.144C27.431 30.144 26.8496 30.016 26.3483 29.76C25.8576 29.4933 25.463 29.152 25.1643 28.736V30H22.9243V18.16H25.1643V22.432ZM29.8523 25.536C29.8523 25.0027 29.7403 24.544 29.5163 24.16C29.303 23.7653 29.015 23.4667 28.6523 23.264C28.3003 23.0613 27.9163 22.96 27.5003 22.96C27.095 22.96 26.711 23.0667 26.3483 23.28C25.9963 23.4827 25.7083 23.7813 25.4843 24.176C25.271 24.5707 25.1643 25.0347 25.1643 25.568C25.1643 26.1013 25.271 26.5653 25.4843 26.96C25.7083 27.3547 25.9963 27.6587 26.3483 27.872C26.711 28.0747 27.095 28.176 27.5003 28.176C27.9163 28.176 28.3003 28.0693 28.6523 27.856C29.015 27.6427 29.303 27.3387 29.5163 26.944C29.7403 26.5493 29.8523 26.08 29.8523 25.536Z" fill="black"/>
</svg>
